<mxfile host="65bd71144e">
    <diagram id="W_fYMVlUyPx3CGEZncxc" name="第 1 页">
        <mxGraphModel dx="970" dy="1138" grid="1" gridSize="10" guides="1" tooltips="1" connect="1" arrows="1" fold="1" page="1" pageScale="1" pageWidth="827" pageHeight="1169" background="none" math="0" shadow="0">
            <root>
                <mxCell id="0"/>
                <mxCell id="1" parent="0"/>
                <mxCell id="2" value="初始化ROS节点" style="rounded=0;whiteSpace=wrap;html=1;" parent="1" vertex="1">
                    <mxGeometry x="40" y="60" width="120" height="60" as="geometry"/>
                </mxCell>
                <mxCell id="3" value="&lt;font face=&quot;Lucida Console&quot;&gt;main函数入口&lt;/font&gt;" style="text;html=1;align=center;verticalAlign=middle;resizable=0;points=[];autosize=1;strokeColor=none;fillColor=none;" parent="1" vertex="1">
                    <mxGeometry x="40" y="20" width="100" height="30" as="geometry"/>
                </mxCell>
                <mxCell id="4" value="" style="html=1;shadow=0;dashed=0;align=center;verticalAlign=middle;shape=mxgraph.arrows2.arrow;dy=0.6;dx=40;direction=south;notch=0;fontFamily=Times New Roman;" parent="1" vertex="1">
                    <mxGeometry x="82.5" y="120" width="35" height="80" as="geometry"/>
                </mxCell>
                <mxCell id="5" value="读取config文件夹中的参数，放入parameter类中" style="rounded=0;whiteSpace=wrap;html=1;" parent="1" vertex="1">
                    <mxGeometry x="40" y="210" width="120" height="60" as="geometry"/>
                </mxCell>
                <mxCell id="6" value="" style="html=1;shadow=0;dashed=0;align=center;verticalAlign=middle;shape=mxgraph.arrows2.arrow;dy=0.6;dx=40;direction=south;notch=0;fontFamily=Times New Roman;" parent="1" vertex="1">
                    <mxGeometry x="82.5" y="270" width="35" height="80" as="geometry"/>
                </mxCell>
                <mxCell id="7" value="读取config文件夹中的参数，放入估计器对象estimator对象中" style="rounded=0;whiteSpace=wrap;html=1;" parent="1" vertex="1">
                    <mxGeometry x="40" y="360" width="120" height="60" as="geometry"/>
                </mxCell>
                <mxCell id="8" value="" style="html=1;shadow=0;dashed=0;align=center;verticalAlign=middle;shape=mxgraph.arrows2.arrow;dy=0.6;dx=40;direction=south;notch=0;fontFamily=Times New Roman;" parent="1" vertex="1">
                    <mxGeometry x="72.5" y="430" width="35" height="80" as="geometry"/>
                </mxCell>
                <mxCell id="9" value="创建IMU数据订阅，特征数据订阅，图像数据订阅" style="rounded=0;whiteSpace=wrap;html=1;" parent="1" vertex="1">
                    <mxGeometry x="30" y="520" width="120" height="60" as="geometry"/>
                </mxCell>
                <mxCell id="10" value="&lt;div style=&quot;color: rgb(171, 178, 191); background-color: rgb(40, 44, 52); font-family: &amp;quot;Droid Sans Mono&amp;quot;, &amp;quot;monospace&amp;quot;, monospace; font-size: 11.2px; line-height: 15px;&quot;&gt;&lt;span style=&quot;color: #61afef;font-weight: bold;&quot;&gt;sync_process线程同步处理&lt;/span&gt;&lt;/div&gt;&lt;div style=&quot;color: rgb(171, 178, 191); background-color: rgb(40, 44, 52); font-family: &amp;quot;Droid Sans Mono&amp;quot;, &amp;quot;monospace&amp;quot;, monospace; font-size: 11.2px; line-height: 15px;&quot;&gt;&lt;span style=&quot;color: #61afef;font-weight: bold;&quot;&gt;只要缓冲区来图像了和imu数据了就会同步处理&lt;/span&gt;&lt;/div&gt;" style="text;html=1;align=center;verticalAlign=middle;resizable=0;points=[];autosize=1;strokeColor=none;fillColor=none;fontFamily=Times New Roman;" parent="1" vertex="1">
                    <mxGeometry x="165" y="15" width="260" height="40" as="geometry"/>
                </mxCell>
                <mxCell id="12" value="是否是双目" style="strokeWidth=2;html=1;shape=mxgraph.flowchart.decision;whiteSpace=wrap;fontFamily=Times New Roman;" parent="1" vertex="1">
                    <mxGeometry x="245" y="80" width="100" height="40" as="geometry"/>
                </mxCell>
                <mxCell id="13" value="" style="html=1;shadow=0;dashed=0;align=center;verticalAlign=middle;shape=mxgraph.arrows2.arrow;dy=0.6;dx=40;direction=south;notch=0;fontFamily=Times New Roman;" parent="1" vertex="1">
                    <mxGeometry x="277.5" y="130" width="35" height="80" as="geometry"/>
                </mxCell>
                <mxCell id="14" value="是" style="text;html=1;align=center;verticalAlign=middle;resizable=0;points=[];autosize=1;strokeColor=none;fillColor=none;fontFamily=Times New Roman;" parent="1" vertex="1">
                    <mxGeometry x="305" y="130" width="40" height="30" as="geometry"/>
                </mxCell>
                <mxCell id="15" value="" style="html=1;shadow=0;dashed=0;align=center;verticalAlign=middle;shape=mxgraph.arrows2.arrow;dy=0.6;dx=40;direction=south;notch=0;fontFamily=Times New Roman;rotation=-90;" parent="1" vertex="1">
                    <mxGeometry x="379" y="60" width="35" height="80" as="geometry"/>
                </mxCell>
                <mxCell id="16" value="否" style="text;html=1;align=center;verticalAlign=middle;resizable=0;points=[];autosize=1;strokeColor=none;fillColor=none;fontFamily=Times New Roman;" parent="1" vertex="1">
                    <mxGeometry x="350" y="55" width="40" height="30" as="geometry"/>
                </mxCell>
                <mxCell id="17" value="进行两张图像的时间戳对其（保证正负0.003秒），对其后从图像缓冲区拿到图像并且弹出图像" style="rounded=0;whiteSpace=wrap;html=1;fontFamily=Times New Roman;" parent="1" vertex="1">
                    <mxGeometry x="235" y="220" width="120" height="80" as="geometry"/>
                </mxCell>
                <mxCell id="18" value="直接获取缓冲区图像队列的头front指针指向的图像数据" style="rounded=0;whiteSpace=wrap;html=1;fontFamily=Times New Roman;" parent="1" vertex="1">
                    <mxGeometry x="440" y="70" width="120" height="60" as="geometry"/>
                </mxCell>
                <mxCell id="19" value="" style="endArrow=none;html=1;fontFamily=Times New Roman;" parent="1" edge="1">
                    <mxGeometry width="50" height="50" relative="1" as="geometry">
                        <mxPoint x="500" y="360" as="sourcePoint"/>
                        <mxPoint x="500" y="130" as="targetPoint"/>
                    </mxGeometry>
                </mxCell>
                <mxCell id="20" value="" style="endArrow=none;html=1;fontFamily=Times New Roman;entryX=0.459;entryY=1.007;entryDx=0;entryDy=0;entryPerimeter=0;" parent="1" target="17" edge="1">
                    <mxGeometry width="50" height="50" relative="1" as="geometry">
                        <mxPoint x="290" y="360" as="sourcePoint"/>
                        <mxPoint x="420" y="340" as="targetPoint"/>
                    </mxGeometry>
                </mxCell>
                <mxCell id="21" value="" style="endArrow=none;html=1;fontFamily=Times New Roman;" parent="1" edge="1">
                    <mxGeometry width="50" height="50" relative="1" as="geometry">
                        <mxPoint x="290" y="360" as="sourcePoint"/>
                        <mxPoint x="500" y="360" as="targetPoint"/>
                    </mxGeometry>
                </mxCell>
                <mxCell id="22" value="" style="html=1;shadow=0;dashed=0;align=center;verticalAlign=middle;shape=mxgraph.arrows2.arrow;dy=0.6;dx=40;direction=south;notch=0;fontFamily=Times New Roman;" parent="1" vertex="1">
                    <mxGeometry x="362.5" y="360" width="35" height="80" as="geometry"/>
                </mxCell>
                <mxCell id="23" value="将图像数据扔进estimator对象（执行inputimage函数）" style="rounded=0;whiteSpace=wrap;html=1;fontFamily=Times New Roman;" parent="1" vertex="1">
                    <mxGeometry x="320" y="450" width="120" height="50" as="geometry"/>
                </mxCell>
                <mxCell id="24" value="" style="html=1;shadow=0;dashed=0;align=center;verticalAlign=middle;shape=mxgraph.arrows2.arrow;dy=0.6;dx=40;direction=south;notch=0;fontFamily=Times New Roman;" parent="1" vertex="1">
                    <mxGeometry x="362.5" y="510" width="35" height="80" as="geometry"/>
                </mxCell>
                <mxCell id="25" value="初始化计时器与特征呢保存容器（map类型）" style="rounded=0;whiteSpace=wrap;html=1;fontFamily=Times New Roman;" parent="1" vertex="1">
                    <mxGeometry x="320" y="600" width="120" height="50" as="geometry"/>
                </mxCell>
                <mxCell id="26" value="" style="html=1;shadow=0;dashed=0;align=center;verticalAlign=middle;shape=mxgraph.arrows2.arrow;dy=0.6;dx=40;direction=south;notch=0;fontFamily=Times New Roman;" parent="1" vertex="1">
                    <mxGeometry x="355" y="660" width="35" height="80" as="geometry"/>
                </mxCell>
                <mxCell id="27" value="进行图像跟踪（trackimage）" style="rounded=0;whiteSpace=wrap;html=1;fontFamily=Times New Roman;" parent="1" vertex="1">
                    <mxGeometry x="312.5" y="750" width="120" height="50" as="geometry"/>
                </mxCell>
                <mxCell id="28" value="" style="endArrow=classic;html=1;fontFamily=Times New Roman;" parent="1" edge="1">
                    <mxGeometry width="50" height="50" relative="1" as="geometry">
                        <mxPoint x="440" y="770" as="sourcePoint"/>
                        <mxPoint x="640" y="140" as="targetPoint"/>
                    </mxGeometry>
                </mxCell>
                <mxCell id="29" value="根据是否有预测点进行两种不同方式的光流追踪" style="rounded=0;whiteSpace=wrap;html=1;fontFamily=Times New Roman;" parent="1" vertex="1">
                    <mxGeometry x="657.5" y="390" width="120" height="60" as="geometry"/>
                </mxCell>
                <mxCell id="30" value="判断是否有预测点" style="strokeWidth=2;html=1;shape=mxgraph.flowchart.decision;whiteSpace=wrap;fontFamily=Times New Roman;" parent="1" vertex="1">
                    <mxGeometry x="651.25" y="230" width="132.5" height="60" as="geometry"/>
                </mxCell>
                <mxCell id="31" value="" style="html=1;shadow=0;dashed=0;align=center;verticalAlign=middle;shape=mxgraph.arrows2.arrow;dy=0.6;dx=40;direction=south;notch=0;fontFamily=Times New Roman;" parent="1" vertex="1">
                    <mxGeometry x="700" y="140" width="35" height="80" as="geometry"/>
                </mxCell>
                <mxCell id="32" value="" style="html=1;shadow=0;dashed=0;align=center;verticalAlign=middle;shape=mxgraph.arrows2.arrow;dy=0.6;dx=40;direction=south;notch=0;fontFamily=Times New Roman;" parent="1" vertex="1">
                    <mxGeometry x="700" y="300" width="35" height="80" as="geometry"/>
                </mxCell>
                <mxCell id="33" value="进行反向光流追踪(这个是根据配置文件的参数进行设定的)" style="rounded=0;whiteSpace=wrap;html=1;fontFamily=Times New Roman;dashed=1;dashPattern=12 12;" parent="1" vertex="1">
                    <mxGeometry x="657.5" y="550" width="120" height="60" as="geometry"/>
                </mxCell>
                <mxCell id="34" value="" style="html=1;shadow=0;dashed=0;align=center;verticalAlign=middle;shape=mxgraph.arrows2.arrow;dy=0.6;dx=40;direction=south;notch=0;fontFamily=Times New Roman;" parent="1" vertex="1">
                    <mxGeometry x="700" y="460" width="35" height="80" as="geometry"/>
                </mxCell>
                <mxCell id="36" value="这里的主要区别在于是否采用初始光流估计" style="rounded=1;whiteSpace=wrap;html=1;dashed=1;dashPattern=12 12;fontFamily=Times New Roman;" parent="1" vertex="1">
                    <mxGeometry x="810" y="390" width="120" height="60" as="geometry"/>
                </mxCell>
                <mxCell id="37" value="进行图像的初始化，清除当前帧的特征点" style="rounded=0;whiteSpace=wrap;html=1;fontFamily=Times New Roman;" parent="1" vertex="1">
                    <mxGeometry x="657.5" y="70" width="120" height="60" as="geometry"/>
                </mxCell>
                <mxCell id="38" value="去除跟丢的特征点以及在边界外的特征点" style="rounded=0;whiteSpace=wrap;html=1;fontFamily=Times New Roman;" parent="1" vertex="1">
                    <mxGeometry x="657.5" y="710" width="120" height="60" as="geometry"/>
                </mxCell>
                <mxCell id="39" value="" style="html=1;shadow=0;dashed=0;align=center;verticalAlign=middle;shape=mxgraph.arrows2.arrow;dy=0.6;dx=40;direction=south;notch=0;fontFamily=Times New Roman;" parent="1" vertex="1">
                    <mxGeometry x="700" y="780" width="35" height="80" as="geometry"/>
                </mxCell>
                <mxCell id="60" value="" style="edgeStyle=none;html=1;" edge="1" parent="1" source="40" target="59">
                    <mxGeometry relative="1" as="geometry"/>
                </mxCell>
                <mxCell id="40" value="" style="html=1;shadow=0;dashed=0;align=center;verticalAlign=middle;shape=mxgraph.arrows2.arrow;dy=0.6;dx=40;direction=south;notch=0;fontFamily=Times New Roman;" parent="1" vertex="1">
                    <mxGeometry x="700" y="620" width="35" height="80" as="geometry"/>
                </mxCell>
                <mxCell id="41" value="设置掩膜Mask" style="rounded=0;whiteSpace=wrap;html=1;fontFamily=Times New Roman;" parent="1" vertex="1">
                    <mxGeometry x="657.5" y="870" width="120" height="40" as="geometry"/>
                </mxCell>
                <mxCell id="43" value="" style="shape=curlyBracket;whiteSpace=wrap;html=1;rounded=1;labelPosition=left;verticalLabelPosition=middle;align=right;verticalAlign=middle;dashed=1;dashPattern=12 12;fontFamily=Times New Roman;" parent="1" vertex="1">
                    <mxGeometry x="810" y="770" width="60" height="250" as="geometry"/>
                </mxCell>
                <mxCell id="44" value="" style="html=1;shadow=0;dashed=0;align=center;verticalAlign=middle;shape=mxgraph.arrows2.arrow;dy=0.6;dx=40;direction=south;notch=0;fontFamily=Times New Roman;" parent="1" vertex="1">
                    <mxGeometry x="700" y="940" width="35" height="80" as="geometry"/>
                </mxCell>
                <mxCell id="45" value="如果点不够，进行goodfeatiresTotrack补点" style="rounded=0;whiteSpace=wrap;html=1;fontFamily=Times New Roman;" parent="1" vertex="1">
                    <mxGeometry x="657.5" y="1020" width="120" height="60" as="geometry"/>
                </mxCell>
                <mxCell id="46" value="" style="html=1;shadow=0;dashed=0;align=center;verticalAlign=middle;shape=mxgraph.arrows2.arrow;dy=0.6;dx=40;direction=south;notch=0;fontFamily=Times New Roman;" parent="1" vertex="1">
                    <mxGeometry x="700" y="1090" width="35" height="80" as="geometry"/>
                </mxCell>
                <mxCell id="47" value="对特征代点进行去畸变处理并且计算速度信息" style="rounded=0;whiteSpace=wrap;html=1;fontFamily=Times New Roman;" parent="1" vertex="1">
                    <mxGeometry x="657.5" y="1180" width="120" height="60" as="geometry"/>
                </mxCell>
                <mxCell id="48" value="" style="html=1;shadow=0;dashed=0;align=center;verticalAlign=middle;shape=mxgraph.arrows2.arrow;dy=0.6;dx=40;direction=south;notch=0;fontFamily=Times New Roman;" vertex="1" parent="1">
                    <mxGeometry x="352.5" y="810" width="35" height="80" as="geometry"/>
                </mxCell>
                <mxCell id="49" value="图像跟踪完毕将图像放入featureBuf缓冲区" style="rounded=0;whiteSpace=wrap;html=1;fontFamily=Times New Roman;" vertex="1" parent="1">
                    <mxGeometry x="310" y="900" width="120" height="50" as="geometry"/>
                </mxCell>
                <mxCell id="63" style="edgeStyle=none;html=1;exitX=1;exitY=0;exitDx=0;exitDy=0;entryX=1;entryY=0.5;entryDx=0;entryDy=0;" edge="1" parent="1" source="53" target="49">
                    <mxGeometry relative="1" as="geometry"/>
                </mxCell>
                <mxCell id="53" value="" style="shape=partialRectangle;whiteSpace=wrap;html=1;bottom=0;right=0;fillColor=none;rotation=-180;" vertex="1" parent="1">
                    <mxGeometry x="912.5" y="40" width="87.5" height="885" as="geometry"/>
                </mxCell>
                <mxCell id="55" value="" style="endArrow=classic;html=1;" edge="1" parent="1">
                    <mxGeometry width="50" height="50" relative="1" as="geometry">
                        <mxPoint x="1000" y="40" as="sourcePoint"/>
                        <mxPoint x="1160" y="40" as="targetPoint"/>
                    </mxGeometry>
                </mxCell>
                <mxCell id="56" value="&lt;div style=&quot;color: rgb(171, 178, 191); background-color: rgb(40, 44, 52); font-family: &amp;quot;Droid Sans Mono&amp;quot;, &amp;quot;monospace&amp;quot;, monospace; font-weight: normal; font-size: 14px; line-height: 19px;&quot;&gt;&lt;div&gt;&lt;span style=&quot;color: #61afef;font-weight: bold;&quot;&gt;processMeasurements&lt;/span&gt;&lt;span style=&quot;color: #abb2bf;&quot;&gt;();&lt;/span&gt;&lt;span style=&quot;color: #7f848e;&quot;&gt; &lt;/span&gt;&lt;/div&gt;&lt;/div&gt;" style="text;whiteSpace=wrap;html=1;" vertex="1" parent="1">
                    <mxGeometry x="1170" y="15" width="220" height="40" as="geometry"/>
                </mxCell>
                <mxCell id="58" value="测量处理线程" style="rounded=0;whiteSpace=wrap;html=1;" vertex="1" parent="1">
                    <mxGeometry x="1181" y="60" width="169" height="60" as="geometry"/>
                </mxCell>
                <mxCell id="59" value="" style="html=1;shadow=0;dashed=0;align=center;verticalAlign=middle;shape=mxgraph.arrows2.arrow;dy=0.6;dx=40;direction=south;notch=0;fontFamily=Times New Roman;" vertex="1" parent="1">
                    <mxGeometry x="700" y="780" width="35" height="80" as="geometry"/>
                </mxCell>
                <mxCell id="61" value="如果使用IMU,获取IMU的加速度与角速度" style="rounded=0;whiteSpace=wrap;html=1;fontFamily=Times New Roman;" vertex="1" parent="1">
                    <mxGeometry x="1205.5" y="220" width="120" height="60" as="geometry"/>
                </mxCell>
                <mxCell id="78" value="" style="edgeStyle=none;html=1;" edge="1" parent="1" source="62" target="77">
                    <mxGeometry relative="1" as="geometry"/>
                </mxCell>
                <mxCell id="62" value="" style="html=1;shadow=0;dashed=0;align=center;verticalAlign=middle;shape=mxgraph.arrows2.arrow;dy=0.6;dx=40;direction=south;notch=0;fontFamily=Times New Roman;" vertex="1" parent="1">
                    <mxGeometry x="1248" y="130" width="35" height="80" as="geometry"/>
                </mxCell>
                <mxCell id="64" value="如果使用IMU,获取IMU的加速度与角速度" style="rounded=0;whiteSpace=wrap;html=1;fontFamily=Times New Roman;" vertex="1" parent="1">
                    <mxGeometry x="1205.5" y="380" width="120" height="60" as="geometry"/>
                </mxCell>
                <mxCell id="65" value="" style="html=1;shadow=0;dashed=0;align=center;verticalAlign=middle;shape=mxgraph.arrows2.arrow;dy=0.6;dx=40;direction=south;notch=0;fontFamily=Times New Roman;" vertex="1" parent="1">
                    <mxGeometry x="1248" y="290" width="35" height="80" as="geometry"/>
                </mxCell>
                <mxCell id="66" value="如果使用IMU,初始化第一帧IMU的姿态" style="rounded=0;whiteSpace=wrap;html=1;fontFamily=Times New Roman;" vertex="1" parent="1">
                    <mxGeometry x="1205.5" y="540" width="120" height="60" as="geometry"/>
                </mxCell>
                <mxCell id="67" value="" style="html=1;shadow=0;dashed=0;align=center;verticalAlign=middle;shape=mxgraph.arrows2.arrow;dy=0.6;dx=40;direction=south;notch=0;fontFamily=Times New Roman;" vertex="1" parent="1">
                    <mxGeometry x="1248" y="450" width="35" height="80" as="geometry"/>
                </mxCell>
                <mxCell id="68" value="进行IMU的预积分" style="rounded=0;whiteSpace=wrap;html=1;fontFamily=Times New Roman;" vertex="1" parent="1">
                    <mxGeometry x="1205.5" y="700" width="120" height="60" as="geometry"/>
                </mxCell>
                <mxCell id="69" value="" style="html=1;shadow=0;dashed=0;align=center;verticalAlign=middle;shape=mxgraph.arrows2.arrow;dy=0.6;dx=40;direction=south;notch=0;fontFamily=Times New Roman;" vertex="1" parent="1">
                    <mxGeometry x="1248" y="610" width="35" height="80" as="geometry"/>
                </mxCell>
                <mxCell id="70" value="进行图像的处理，执行processImage函数" style="rounded=0;whiteSpace=wrap;html=1;fontFamily=Times New Roman;" vertex="1" parent="1">
                    <mxGeometry x="1205.5" y="860" width="120" height="60" as="geometry"/>
                </mxCell>
                <mxCell id="71" value="" style="html=1;shadow=0;dashed=0;align=center;verticalAlign=middle;shape=mxgraph.arrows2.arrow;dy=0.6;dx=40;direction=south;notch=0;fontFamily=Times New Roman;" vertex="1" parent="1">
                    <mxGeometry x="1248" y="770" width="35" height="80" as="geometry"/>
                </mxCell>
                <mxCell id="72" value="发布里程计数据，位姿数据，点云数据，关键帧数据" style="rounded=0;whiteSpace=wrap;html=1;fontFamily=Times New Roman;" vertex="1" parent="1">
                    <mxGeometry x="1205.5" y="1015" width="120" height="60" as="geometry"/>
                </mxCell>
                <mxCell id="73" value="" style="html=1;shadow=0;dashed=0;align=center;verticalAlign=middle;shape=mxgraph.arrows2.arrow;dy=0.6;dx=40;direction=south;notch=0;fontFamily=Times New Roman;" vertex="1" parent="1">
                    <mxGeometry x="1248" y="925" width="35" height="80" as="geometry"/>
                </mxCell>
                <mxCell id="74" value="" style="endArrow=classic;html=1;" edge="1" parent="1">
                    <mxGeometry width="50" height="50" relative="1" as="geometry">
                        <mxPoint x="1325.5" y="890" as="sourcePoint"/>
                        <mxPoint x="1490" y="150" as="targetPoint"/>
                    </mxGeometry>
                </mxCell>
                <mxCell id="76" value="进入图像特征处理函数processImage" style="rounded=0;whiteSpace=wrap;html=1;fontFamily=Times New Roman;" vertex="1" parent="1">
                    <mxGeometry x="1550" y="55" width="120" height="60" as="geometry"/>
                </mxCell>
                <mxCell id="77" value="" style="html=1;shadow=0;dashed=0;align=center;verticalAlign=middle;shape=mxgraph.arrows2.arrow;dy=0.6;dx=40;direction=south;notch=0;fontFamily=Times New Roman;" vertex="1" parent="1">
                    <mxGeometry x="1248" y="290" width="35" height="80" as="geometry"/>
                </mxCell>
                <mxCell id="79" value="当前帧与之前帧比较视差，决定删除哪一个帧" style="rounded=0;whiteSpace=wrap;html=1;fontFamily=Times New Roman;" vertex="1" parent="1">
                    <mxGeometry x="1550" y="220" width="120" height="60" as="geometry"/>
                </mxCell>
                <mxCell id="80" value="" style="html=1;shadow=0;dashed=0;align=center;verticalAlign=middle;shape=mxgraph.arrows2.arrow;dy=0.6;dx=40;direction=south;notch=0;fontFamily=Times New Roman;" vertex="1" parent="1">
                    <mxGeometry x="1592.5" y="130" width="35" height="80" as="geometry"/>
                </mxCell>
                <mxCell id="81" value="&lt;span style=&quot;color: rgb(215, 218, 224); font-family: system-ui, Ubuntu, &amp;quot;Droid Sans&amp;quot;, sans-serif; font-size: 13px; text-align: start; background-color: rgba(10, 10, 10, 0.4);&quot;&gt;对外部相机和IMU传感器之间外部旋转参数的校准&lt;/span&gt;" style="rounded=0;whiteSpace=wrap;html=1;fontFamily=Times New Roman;" vertex="1" parent="1">
                    <mxGeometry x="1550" y="380" width="120" height="60" as="geometry"/>
                </mxCell>
                <mxCell id="82" value="" style="html=1;shadow=0;dashed=0;align=center;verticalAlign=middle;shape=mxgraph.arrows2.arrow;dy=0.6;dx=40;direction=south;notch=0;fontFamily=Times New Roman;" vertex="1" parent="1">
                    <mxGeometry x="1592.5" y="290" width="35" height="80" as="geometry"/>
                </mxCell>
                <mxCell id="83" value="&lt;div style=&quot;text-align: start;&quot;&gt;&lt;font face=&quot;system-ui, Ubuntu, Droid Sans, sans-serif&quot; color=&quot;#d7dae0&quot;&gt;&lt;span style=&quot;font-size: 13px; background-color: rgba(10, 10, 10, 0.4);&quot;&gt;求解器的初始化，如果不是第一帧的化直接跳过这个初始化过程&lt;/span&gt;&lt;/font&gt;&lt;/div&gt;" style="rounded=0;whiteSpace=wrap;html=1;fontFamily=Times New Roman;dashed=1;dashPattern=8 8;" vertex="1" parent="1">
                    <mxGeometry x="1515" y="540" width="190" height="60" as="geometry"/>
                </mxCell>
                <mxCell id="84" value="" style="html=1;shadow=0;dashed=1;align=center;verticalAlign=middle;shape=mxgraph.arrows2.arrow;dy=0.6;dx=40;direction=south;notch=0;fontFamily=Times New Roman;dashPattern=8 8;" vertex="1" parent="1">
                    <mxGeometry x="1592.5" y="450" width="35" height="80" as="geometry"/>
                </mxCell>
                <mxCell id="85" value="&lt;div style=&quot;text-align: start;&quot;&gt;&lt;font face=&quot;system-ui, Ubuntu, Droid Sans, sans-serif&quot; color=&quot;#d7dae0&quot;&gt;&lt;span style=&quot;font-size: 13px; background-color: rgba(10, 10, 10, 0.4);&quot;&gt;初始化第一帧与第二帧公共的地图点（三角测量）&lt;/span&gt;&lt;/font&gt;&lt;/div&gt;" style="rounded=0;whiteSpace=wrap;html=1;fontFamily=Times New Roman;" vertex="1" parent="1">
                    <mxGeometry x="1550" y="700" width="120" height="60" as="geometry"/>
                </mxCell>
                <mxCell id="86" value="" style="html=1;shadow=0;dashed=0;align=center;verticalAlign=middle;shape=mxgraph.arrows2.arrow;dy=0.6;dx=40;direction=south;notch=0;fontFamily=Times New Roman;" vertex="1" parent="1">
                    <mxGeometry x="1592.5" y="610" width="35" height="80" as="geometry"/>
                </mxCell>
                <mxCell id="87" value="&lt;div style=&quot;text-align: start;&quot;&gt;&lt;font face=&quot;system-ui, Ubuntu, Droid Sans, sans-serif&quot; color=&quot;#d7dae0&quot;&gt;&lt;span style=&quot;font-size: 13px; background-color: rgba(10, 10, 10, 0.4);&quot;&gt;优化位姿和地图点，执行optimization函数&lt;/span&gt;&lt;/font&gt;&lt;/div&gt;" style="rounded=0;whiteSpace=wrap;html=1;fontFamily=Times New Roman;" vertex="1" parent="1">
                    <mxGeometry x="1540" y="850" width="140" height="60" as="geometry"/>
                </mxCell>
                <mxCell id="88" value="" style="html=1;shadow=0;dashed=0;align=center;verticalAlign=middle;shape=mxgraph.arrows2.arrow;dy=0.6;dx=40;direction=south;notch=0;fontFamily=Times New Roman;" vertex="1" parent="1">
                    <mxGeometry x="1592.5" y="760" width="35" height="80" as="geometry"/>
                </mxCell>
                <mxCell id="89" value="" style="endArrow=classic;html=1;" edge="1" parent="1">
                    <mxGeometry width="50" height="50" relative="1" as="geometry">
                        <mxPoint x="1700" y="880" as="sourcePoint"/>
                        <mxPoint x="1864.5" y="140" as="targetPoint"/>
                    </mxGeometry>
                </mxCell>
                <mxCell id="90" value="&lt;div style=&quot;text-align: start;&quot;&gt;&lt;font face=&quot;system-ui, Ubuntu, Droid Sans, sans-serif&quot; color=&quot;#d7dae0&quot;&gt;&lt;span style=&quot;font-size: 13px; background-color: rgba(10, 10, 10, 0.4);&quot;&gt;进行滑动窗口优化进行优化多帧的位姿&lt;/span&gt;&lt;/font&gt;&lt;/div&gt;" style="rounded=0;whiteSpace=wrap;html=1;fontFamily=Times New Roman;" vertex="1" parent="1">
                    <mxGeometry x="1540" y="1015" width="140" height="60" as="geometry"/>
                </mxCell>
                <mxCell id="91" value="" style="html=1;shadow=0;dashed=0;align=center;verticalAlign=middle;shape=mxgraph.arrows2.arrow;dy=0.6;dx=40;direction=south;notch=0;fontFamily=Times New Roman;" vertex="1" parent="1">
                    <mxGeometry x="1592.5" y="925" width="35" height="80" as="geometry"/>
                </mxCell>
                <mxCell id="92" value="&lt;div style=&quot;text-align: start;&quot;&gt;&lt;font face=&quot;system-ui, Ubuntu, Droid Sans, sans-serif&quot; color=&quot;#d7dae0&quot;&gt;&lt;span style=&quot;font-size: 13px; background-color: rgba(10, 10, 10, 0.4);&quot;&gt;输出VINS的计算数据，更新姿态&lt;/span&gt;&lt;/font&gt;&lt;/div&gt;" style="rounded=0;whiteSpace=wrap;html=1;fontFamily=Times New Roman;" vertex="1" parent="1">
                    <mxGeometry x="1540" y="1180" width="140" height="60" as="geometry"/>
                </mxCell>
                <mxCell id="93" value="" style="html=1;shadow=0;dashed=0;align=center;verticalAlign=middle;shape=mxgraph.arrows2.arrow;dy=0.6;dx=40;direction=south;notch=0;fontFamily=Times New Roman;" vertex="1" parent="1">
                    <mxGeometry x="1592.5" y="1090" width="35" height="80" as="geometry"/>
                </mxCell>
                <mxCell id="94" value="进行帧的位姿优化函数（最小化重投影误差）" style="rounded=0;whiteSpace=wrap;html=1;fontFamily=Times New Roman;" vertex="1" parent="1">
                    <mxGeometry x="1900" y="45" width="120" height="60" as="geometry"/>
                </mxCell>
                <mxCell id="95" value="" style="html=1;shadow=0;dashed=0;align=center;verticalAlign=middle;shape=mxgraph.arrows2.arrow;dy=0.6;dx=40;direction=south;notch=0;fontFamily=Times New Roman;" vertex="1" parent="1">
                    <mxGeometry x="1942.5" y="120" width="35" height="80" as="geometry"/>
                </mxCell>
            </root>
        </mxGraphModel>
    </diagram>
</mxfile>